<svg xmlns="http://www.w3.org/2000/svg" xmlns:xlink="http://www.w3.org/1999/xlink" preserveAspectRatio="xMidYMid" width="32" height="32" viewBox="0 0 32 32">
  <defs>
    <style>

      .cls-2 {
        fill: #999999;
      }
    </style>
  </defs>
  <path d="M28.000,32.000 C28.000,32.000 4.000,32.000 4.000,32.000 C1.794,32.000 0.000,30.206 0.000,28.000 C0.000,28.000 0.000,4.000 0.000,4.000 C0.000,1.794 1.794,-0.000 4.000,-0.000 C4.000,-0.000 28.000,-0.000 28.000,-0.000 C30.206,-0.000 32.000,1.794 32.000,4.000 C32.000,4.000 32.000,28.000 32.000,28.000 C32.000,30.206 30.206,32.000 28.000,32.000 ZM30.000,4.000 C30.000,2.897 29.103,2.000 28.000,2.000 C28.000,2.000 4.000,2.000 4.000,2.000 C2.897,2.000 2.000,2.897 2.000,4.000 C2.000,4.000 2.000,28.000 2.000,28.000 C2.000,29.102 2.897,30.000 4.000,30.000 C4.000,30.000 28.000,30.000 28.000,30.000 C29.103,30.000 30.000,29.102 30.000,28.000 C30.000,28.000 30.000,4.000 30.000,4.000 ZM25.000,26.000 C25.000,26.000 20.000,26.000 20.000,26.000 C19.448,26.000 19.000,25.552 19.000,25.000 C19.000,24.447 19.448,24.000 20.000,24.000 C20.000,24.000 22.586,24.000 22.586,24.000 C22.586,24.000 18.293,19.707 18.293,19.707 C17.902,19.316 17.902,18.683 18.293,18.293 C18.684,17.902 19.316,17.902 19.707,18.293 C19.707,18.293 24.000,22.586 24.000,22.586 C24.000,22.586 24.000,20.000 24.000,20.000 C24.000,19.447 24.448,19.000 25.000,19.000 C25.552,19.000 26.000,19.447 26.000,20.000 C26.000,20.000 26.000,25.000 26.000,25.000 C26.000,25.552 25.552,26.000 25.000,26.000 ZM25.000,13.000 C24.448,13.000 24.000,12.553 24.000,12.000 C24.000,12.000 24.000,9.414 24.000,9.414 C24.000,9.414 19.707,13.707 19.707,13.707 C19.512,13.902 19.256,14.000 19.000,14.000 C18.744,14.000 18.488,13.902 18.293,13.707 C17.902,13.316 17.902,12.684 18.293,12.293 C18.293,12.293 22.586,8.000 22.586,8.000 C22.586,8.000 20.000,8.000 20.000,8.000 C19.448,8.000 19.000,7.552 19.000,7.000 C19.000,6.447 19.448,6.000 20.000,6.000 C20.000,6.000 25.000,6.000 25.000,6.000 C25.552,6.000 26.000,6.447 26.000,7.000 C26.000,7.000 26.000,12.000 26.000,12.000 C26.000,12.553 25.552,13.000 25.000,13.000 ZM9.414,24.000 C9.414,24.000 12.000,24.000 12.000,24.000 C12.552,24.000 13.000,24.447 13.000,25.000 C13.000,25.552 12.552,26.000 12.000,26.000 C12.000,26.000 7.000,26.000 7.000,26.000 C6.448,26.000 6.000,25.552 6.000,25.000 C6.000,25.000 6.000,20.000 6.000,20.000 C6.000,19.447 6.448,19.000 7.000,19.000 C7.552,19.000 8.000,19.447 8.000,20.000 C8.000,20.000 8.000,22.586 8.000,22.586 C8.000,22.586 12.293,18.293 12.293,18.293 C12.684,17.902 13.317,17.902 13.707,18.293 C14.098,18.683 14.098,19.316 13.707,19.707 C13.707,19.707 9.414,24.000 9.414,24.000 ZM13.000,14.000 C12.744,14.000 12.488,13.902 12.293,13.707 C12.293,13.707 8.000,9.414 8.000,9.414 C8.000,9.414 8.000,12.000 8.000,12.000 C8.000,12.553 7.552,13.000 7.000,13.000 C6.448,13.000 6.000,12.553 6.000,12.000 C6.000,12.000 6.000,7.000 6.000,7.000 C6.000,6.447 6.448,6.000 7.000,6.000 C7.000,6.000 12.000,6.000 12.000,6.000 C12.552,6.000 13.000,6.447 13.000,7.000 C13.000,7.552 12.552,8.000 12.000,8.000 C12.000,8.000 9.414,8.000 9.414,8.000 C9.414,8.000 13.707,12.293 13.707,12.293 C14.098,12.684 14.098,13.316 13.707,13.707 C13.512,13.902 13.256,14.000 13.000,14.000 Z" id="path-1" class="cls-2" fill-rule="evenodd"/>
</svg>
