<svg xmlns="http://www.w3.org/2000/svg" xmlns:xlink="http://www.w3.org/1999/xlink" preserveAspectRatio="xMidYMid" width="32" height="32" viewBox="0 0 32 32">
  <defs>
    <style>

      .cls-2 {
        fill: #999999;
      }
    </style>
  </defs>
  <path d="M28.000,32.000 C28.000,32.000 4.000,32.000 4.000,32.000 C1.794,32.000 0.000,30.205 0.000,28.000 C0.000,28.000 0.000,4.000 0.000,4.000 C0.000,1.794 1.794,-0.000 4.000,-0.000 C4.000,-0.000 28.000,-0.000 28.000,-0.000 C30.206,-0.000 32.000,1.794 32.000,4.000 C32.000,4.000 32.000,28.000 32.000,28.000 C32.000,30.205 30.206,32.000 28.000,32.000 ZM30.000,4.000 C30.000,2.897 29.103,2.000 28.000,2.000 C28.000,2.000 4.000,2.000 4.000,2.000 C2.898,2.000 2.000,2.897 2.000,4.000 C2.000,4.000 2.000,28.000 2.000,28.000 C2.000,29.103 2.898,30.000 4.000,30.000 C4.000,30.000 28.000,30.000 28.000,30.000 C29.103,30.000 30.000,29.103 30.000,28.000 C30.000,28.000 30.000,4.000 30.000,4.000 ZM25.000,24.816 C25.000,24.816 25.000,27.000 25.000,27.000 C25.000,27.552 24.553,28.000 24.000,28.000 C23.447,28.000 23.000,27.552 23.000,27.000 C23.000,27.000 23.000,24.815 23.000,24.815 C21.839,24.401 21.000,23.302 21.000,22.000 C21.000,20.698 21.839,19.598 23.000,19.184 C23.000,19.184 23.000,5.000 23.000,5.000 C23.000,4.448 23.447,4.000 24.000,4.000 C24.553,4.000 25.000,4.448 25.000,5.000 C25.000,5.000 25.000,19.184 25.000,19.184 C26.161,19.598 27.000,20.698 27.000,22.000 C27.000,23.302 26.161,24.401 25.000,24.816 ZM25.000,21.000 C25.000,21.000 23.000,21.000 23.000,21.000 C23.000,21.000 23.000,23.000 23.000,23.000 C23.000,23.000 25.000,23.000 25.000,23.000 C25.000,23.000 25.000,21.000 25.000,21.000 ZM17.000,13.816 C17.000,13.816 17.000,27.000 17.000,27.000 C17.000,27.552 16.553,28.000 16.000,28.000 C15.447,28.000 15.000,27.552 15.000,27.000 C15.000,27.000 15.000,13.815 15.000,13.815 C13.839,13.401 13.000,12.302 13.000,11.000 C13.000,9.698 13.839,8.598 15.000,8.184 C15.000,8.184 15.000,5.000 15.000,5.000 C15.000,4.448 15.447,4.000 16.000,4.000 C16.553,4.000 17.000,4.448 17.000,5.000 C17.000,5.000 17.000,8.184 17.000,8.184 C18.161,8.598 19.000,9.698 19.000,11.000 C19.000,12.302 18.161,13.401 17.000,13.816 ZM17.000,10.000 C17.000,10.000 15.000,10.000 15.000,10.000 C15.000,10.000 15.000,12.000 15.000,12.000 C15.000,12.000 17.000,12.000 17.000,12.000 C17.000,12.000 17.000,10.000 17.000,10.000 ZM9.000,21.816 C9.000,21.816 9.000,27.000 9.000,27.000 C9.000,27.552 8.553,28.000 8.000,28.000 C7.447,28.000 7.000,27.552 7.000,27.000 C7.000,27.000 7.000,21.815 7.000,21.815 C5.839,21.401 5.000,20.302 5.000,19.000 C5.000,17.698 5.839,16.599 7.000,16.184 C7.000,16.184 7.000,5.000 7.000,5.000 C7.000,4.448 7.447,4.000 8.000,4.000 C8.553,4.000 9.000,4.448 9.000,5.000 C9.000,5.000 9.000,16.184 9.000,16.184 C10.161,16.599 11.000,17.698 11.000,19.000 C11.000,20.302 10.161,21.401 9.000,21.816 ZM9.000,18.000 C9.000,18.000 7.000,18.000 7.000,18.000 C7.000,18.000 7.000,20.000 7.000,20.000 C7.000,20.000 9.000,20.000 9.000,20.000 C9.000,20.000 9.000,18.000 9.000,18.000 Z" id="path-1" class="cls-2" fill-rule="evenodd"/>
</svg>
