<svg xmlns="http://www.w3.org/2000/svg" xmlns:xlink="http://www.w3.org/1999/xlink" preserveAspectRatio="xMidYMid" width="32" height="32" viewBox="0 0 32 32">
  <defs>
    <style>

      .cls-2 {
        fill: #999999;
      }
    </style>
  </defs>
  <path d="M28.000,32.000 C28.000,32.000 4.000,32.000 4.000,32.000 C1.794,32.000 0.000,30.206 0.000,28.000 C0.000,28.000 0.000,4.000 0.000,4.000 C0.000,1.794 1.794,-0.000 4.000,-0.000 C4.000,-0.000 28.000,-0.000 28.000,-0.000 C30.206,-0.000 32.000,1.794 32.000,4.000 C32.000,4.000 32.000,28.000 32.000,28.000 C32.000,30.206 30.206,32.000 28.000,32.000 ZM30.000,4.000 C30.000,2.897 29.103,2.000 28.000,2.000 C28.000,2.000 4.000,2.000 4.000,2.000 C2.898,2.000 2.000,2.897 2.000,4.000 C2.000,4.000 2.000,28.000 2.000,28.000 C2.000,29.103 2.898,30.000 4.000,30.000 C4.000,30.000 28.000,30.000 28.000,30.000 C29.103,30.000 30.000,29.103 30.000,28.000 C30.000,28.000 30.000,4.000 30.000,4.000 ZM27.824,26.566 C27.630,26.849 27.317,27.000 26.999,27.000 C26.804,27.000 26.607,26.943 26.434,26.824 C26.434,26.824 10.991,16.208 10.991,16.208 C10.991,16.208 5.555,19.832 5.555,19.832 C5.384,19.945 5.192,20.000 5.001,20.000 C4.678,20.000 4.361,19.844 4.168,19.554 C3.861,19.095 3.985,18.474 4.445,18.168 C4.445,18.168 10.445,14.168 10.445,14.168 C10.448,14.166 10.452,14.166 10.455,14.164 C10.528,14.116 10.611,14.094 10.691,14.067 C10.735,14.053 10.774,14.025 10.818,14.017 C10.858,14.010 10.898,14.020 10.939,14.017 C11.026,14.013 11.113,14.003 11.198,14.020 C11.231,14.026 11.259,14.048 11.290,14.057 C11.384,14.087 11.477,14.117 11.559,14.172 C11.561,14.174 11.564,14.174 11.566,14.176 C11.566,14.176 18.618,19.024 18.618,19.024 C18.618,19.024 23.375,15.219 23.375,15.219 C23.375,15.219 23.384,15.229 23.384,15.229 C23.714,14.965 24.182,14.920 24.555,15.168 C24.555,15.168 27.555,17.168 27.555,17.168 C28.015,17.475 28.139,18.094 27.832,18.555 C27.640,18.844 27.322,19.000 26.999,19.000 C26.809,19.000 26.616,18.945 26.445,18.832 C26.445,18.832 24.054,17.238 24.054,17.238 C24.054,17.238 20.341,20.208 20.341,20.208 C20.341,20.208 27.566,25.176 27.566,25.176 C28.022,25.489 28.137,26.111 27.824,26.566 ZM18.500,13.000 C16.019,13.000 14.000,10.981 14.000,8.500 C14.000,6.019 16.019,4.000 18.500,4.000 C20.981,4.000 23.000,6.019 23.000,8.500 C23.000,10.981 20.981,13.000 18.500,13.000 ZM18.500,6.000 C17.121,6.000 16.000,7.121 16.000,8.500 C16.000,9.879 17.121,11.000 18.500,11.000 C19.879,11.000 21.000,9.879 21.000,8.500 C21.000,7.121 19.879,6.000 18.500,6.000 Z" id="path-1" class="cls-2" fill-rule="evenodd"/>
</svg>
