<svg xmlns="http://www.w3.org/2000/svg" xmlns:xlink="http://www.w3.org/1999/xlink" preserveAspectRatio="xMidYMid" width="32" height="32" viewBox="0 0 32 32">
  <defs>
    <style>

      .cls-2 {
        fill: #999999;
      }
    </style>
  </defs>
  <path d="M30.974,13.847 C30.974,13.847 18.829,1.216 18.829,1.216 C18.074,0.431 17.066,-0.000 15.984,-0.000 C14.903,-0.000 13.895,0.431 13.140,1.216 C13.140,1.216 0.995,13.847 0.995,13.847 C-0.258,15.150 -0.097,16.277 0.110,16.748 C0.258,17.082 0.757,18.000 2.193,18.000 C2.193,18.000 3.973,18.000 3.973,18.000 C3.973,18.000 3.973,27.717 3.973,27.717 C3.973,29.923 5.558,32.000 7.811,32.000 C7.811,32.000 9.854,32.000 9.854,32.000 C9.854,32.000 12.981,32.000 12.981,32.000 C12.981,32.000 12.981,29.717 12.981,29.717 C12.981,29.717 12.981,21.717 12.981,21.717 C12.981,20.614 12.814,20.000 13.941,20.000 C13.941,20.000 15.984,20.000 15.984,20.000 C15.984,20.000 18.027,20.000 18.027,20.000 C19.155,20.000 18.987,20.614 18.987,21.717 C18.987,21.717 18.987,29.717 18.987,29.717 C18.987,29.717 18.987,32.000 18.987,32.000 C18.987,32.000 22.114,32.000 22.114,32.000 C22.114,32.000 24.157,32.000 24.157,32.000 C26.411,32.000 27.996,29.923 27.996,27.717 C27.996,27.717 27.996,18.000 27.996,18.000 C27.996,18.000 29.776,18.000 29.776,18.000 C31.212,18.000 31.711,17.082 31.858,16.748 C32.065,16.277 32.227,15.150 30.974,13.847 ZM29.776,16.000 C29.776,16.000 28.244,16.000 28.244,16.000 C28.244,16.000 27.222,16.000 27.222,16.000 C27.222,16.000 25.994,16.000 25.994,16.000 C25.994,16.000 25.994,27.717 25.994,27.717 C25.994,28.819 25.284,30.000 24.157,30.000 C24.157,30.000 20.989,30.000 20.989,30.000 C20.989,30.000 20.989,21.717 20.989,21.717 C20.989,19.511 20.282,18.000 18.027,18.000 C18.027,18.000 15.984,18.000 15.984,18.000 C15.984,18.000 13.941,18.000 13.941,18.000 C11.687,18.000 10.979,19.511 10.979,21.717 C10.979,21.717 10.979,30.000 10.979,30.000 C10.979,30.000 7.811,30.000 7.811,30.000 C6.685,30.000 5.975,28.819 5.975,27.717 C5.975,27.717 5.975,16.000 5.975,16.000 C5.975,16.000 4.747,16.000 4.747,16.000 C4.747,16.000 3.725,16.000 3.725,16.000 C3.725,16.000 2.193,16.000 2.193,16.000 C2.157,16.000 2.125,15.862 2.096,15.860 C2.165,15.739 2.284,15.432 2.483,15.227 C2.483,15.227 14.629,2.604 14.629,2.604 C14.991,2.226 15.503,1.995 16.000,2.000 C16.497,1.995 16.978,2.226 17.340,2.604 C17.340,2.604 29.486,15.227 29.486,15.227 C29.684,15.432 29.804,15.739 29.873,15.860 C29.844,15.862 29.811,16.000 29.776,16.000 Z" id="path-1" class="cls-2" fill-rule="evenodd"/>
</svg>
