<svg xmlns="http://www.w3.org/2000/svg" xmlns:xlink="http://www.w3.org/1999/xlink" preserveAspectRatio="xMidYMid" width="32" height="32" viewBox="0 0 32 32">
  <defs>
    <style>

      .cls-2 {
        fill: #999999;
      }
    </style>
  </defs>
  <path d="M28.000,32.000 C28.000,32.000 4.000,32.000 4.000,32.000 C1.794,32.000 0.000,30.206 0.000,28.000 C0.000,28.000 0.000,4.000 0.000,4.000 C0.000,1.795 1.794,0.000 4.000,0.000 C4.000,0.000 28.000,0.000 28.000,0.000 C30.206,0.000 32.000,1.795 32.000,4.000 C32.000,4.000 32.000,28.000 32.000,28.000 C32.000,30.206 30.206,32.000 28.000,32.000 ZM30.000,4.000 C30.000,2.897 29.103,2.000 28.000,2.000 C28.000,2.000 4.000,2.000 4.000,2.000 C2.897,2.000 2.000,2.897 2.000,4.000 C2.000,4.000 2.000,28.000 2.000,28.000 C2.000,29.103 2.897,30.000 4.000,30.000 C4.000,30.000 28.000,30.000 28.000,30.000 C29.103,30.000 30.000,29.103 30.000,28.000 C30.000,28.000 30.000,4.000 30.000,4.000 ZM25.000,27.000 C25.000,27.000 19.000,27.000 19.000,27.000 C17.897,27.000 17.000,26.103 17.000,25.000 C17.000,25.000 17.000,19.000 17.000,19.000 C17.000,17.897 17.897,17.000 19.000,17.000 C19.000,17.000 25.000,17.000 25.000,17.000 C26.103,17.000 27.000,17.897 27.000,19.000 C27.000,19.000 27.000,25.000 27.000,25.000 C27.000,26.103 26.103,27.000 25.000,27.000 ZM25.000,19.000 C25.000,19.000 19.000,19.000 19.000,19.000 C19.000,19.000 19.000,25.000 19.000,25.000 C19.000,25.000 25.000,25.000 25.000,25.000 C25.000,25.000 25.000,19.000 25.000,19.000 ZM25.000,15.000 C25.000,15.000 19.000,15.000 19.000,15.000 C17.897,15.000 17.000,14.103 17.000,13.000 C17.000,13.000 17.000,7.000 17.000,7.000 C17.000,5.897 17.897,5.000 19.000,5.000 C19.000,5.000 25.000,5.000 25.000,5.000 C26.103,5.000 27.000,5.897 27.000,7.000 C27.000,7.000 27.000,13.000 27.000,13.000 C27.000,14.103 26.103,15.000 25.000,15.000 ZM25.000,7.000 C25.000,7.000 19.000,7.000 19.000,7.000 C19.000,7.000 19.000,13.000 19.000,13.000 C19.000,13.000 25.000,13.000 25.000,13.000 C25.000,13.000 25.000,7.000 25.000,7.000 ZM13.000,27.000 C13.000,27.000 7.000,27.000 7.000,27.000 C5.897,27.000 5.000,26.103 5.000,25.000 C5.000,25.000 5.000,19.000 5.000,19.000 C5.000,17.897 5.897,17.000 7.000,17.000 C7.000,17.000 13.000,17.000 13.000,17.000 C14.103,17.000 15.000,17.897 15.000,19.000 C15.000,19.000 15.000,25.000 15.000,25.000 C15.000,26.103 14.103,27.000 13.000,27.000 ZM13.000,19.000 C13.000,19.000 7.000,19.000 7.000,19.000 C7.000,19.000 7.000,25.000 7.000,25.000 C7.000,25.000 13.000,25.000 13.000,25.000 C13.000,25.000 13.000,19.000 13.000,19.000 ZM13.000,15.000 C13.000,15.000 7.000,15.000 7.000,15.000 C5.897,15.000 5.000,14.103 5.000,13.000 C5.000,13.000 5.000,7.000 5.000,7.000 C5.000,5.897 5.897,5.000 7.000,5.000 C7.000,5.000 13.000,5.000 13.000,5.000 C14.103,5.000 15.000,5.897 15.000,7.000 C15.000,7.000 15.000,13.000 15.000,13.000 C15.000,14.103 14.103,15.000 13.000,15.000 ZM13.000,7.000 C13.000,7.000 7.000,7.000 7.000,7.000 C7.000,7.000 7.000,13.000 7.000,13.000 C7.000,13.000 13.000,13.000 13.000,13.000 C13.000,13.000 13.000,7.000 13.000,7.000 Z" id="path-1" class="cls-2" fill-rule="evenodd"/>
</svg>
