<svg xmlns="http://www.w3.org/2000/svg" xmlns:xlink="http://www.w3.org/1999/xlink" preserveAspectRatio="xMidYMid" width="32" height="31" viewBox="0 0 32 31">
  <defs>
    <style>

      .cls-2 {
        fill: #999999;
      }
    </style>
  </defs>
  <path d="M28.000,31.000 C28.000,31.000 4.000,31.000 4.000,31.000 C1.794,31.000 0.000,29.205 0.000,27.000 C0.000,27.000 0.000,4.000 0.000,4.000 C0.000,1.794 1.794,-0.000 4.000,-0.000 C4.000,-0.000 28.000,-0.000 28.000,-0.000 C30.206,-0.000 32.000,1.794 32.000,4.000 C32.000,4.000 32.000,27.000 32.000,27.000 C32.000,29.205 30.206,31.000 28.000,31.000 ZM30.000,4.000 C30.000,2.897 29.103,2.000 28.000,2.000 C28.000,2.000 4.000,2.000 4.000,2.000 C2.898,2.000 2.000,2.897 2.000,4.000 C2.000,4.000 2.000,27.000 2.000,27.000 C2.000,28.103 2.898,29.000 4.000,29.000 C4.000,29.000 28.000,29.000 28.000,29.000 C29.103,29.000 30.000,28.103 30.000,27.000 C30.000,27.000 30.000,4.000 30.000,4.000 ZM26.000,24.000 C26.000,24.000 9.000,24.000 9.000,24.000 C8.447,24.000 8.000,23.552 8.000,23.000 C8.000,22.448 8.447,22.000 9.000,22.000 C9.000,22.000 26.000,22.000 26.000,22.000 C26.553,22.000 27.000,22.448 27.000,23.000 C27.000,23.552 26.553,24.000 26.000,24.000 ZM26.000,19.000 C26.000,19.000 9.000,19.000 9.000,19.000 C8.447,19.000 8.000,18.552 8.000,18.000 C8.000,17.448 8.447,17.000 9.000,17.000 C9.000,17.000 26.000,17.000 26.000,17.000 C26.553,17.000 27.000,17.448 27.000,18.000 C27.000,18.552 26.553,19.000 26.000,19.000 ZM26.000,14.000 C26.000,14.000 9.000,14.000 9.000,14.000 C8.447,14.000 8.000,13.552 8.000,13.000 C8.000,12.448 8.447,12.000 9.000,12.000 C9.000,12.000 26.000,12.000 26.000,12.000 C26.553,12.000 27.000,12.448 27.000,13.000 C27.000,13.552 26.553,14.000 26.000,14.000 ZM26.000,9.000 C26.000,9.000 9.000,9.000 9.000,9.000 C8.447,9.000 8.000,8.552 8.000,8.000 C8.000,7.448 8.447,7.000 9.000,7.000 C9.000,7.000 26.000,7.000 26.000,7.000 C26.553,7.000 27.000,7.448 27.000,8.000 C27.000,8.552 26.553,9.000 26.000,9.000 ZM5.000,22.000 C5.000,22.000 7.000,22.000 7.000,22.000 C7.000,22.000 7.000,24.000 7.000,24.000 C7.000,24.000 5.000,24.000 5.000,24.000 C5.000,24.000 5.000,22.000 5.000,22.000 ZM5.000,17.000 C5.000,17.000 7.000,17.000 7.000,17.000 C7.000,17.000 7.000,19.000 7.000,19.000 C7.000,19.000 5.000,19.000 5.000,19.000 C5.000,19.000 5.000,17.000 5.000,17.000 ZM5.000,12.000 C5.000,12.000 7.000,12.000 7.000,12.000 C7.000,12.000 7.000,14.000 7.000,14.000 C7.000,14.000 5.000,14.000 5.000,14.000 C5.000,14.000 5.000,12.000 5.000,12.000 ZM5.000,7.000 C5.000,7.000 7.000,7.000 7.000,7.000 C7.000,7.000 7.000,9.000 7.000,9.000 C7.000,9.000 5.000,9.000 5.000,9.000 C5.000,9.000 5.000,7.000 5.000,7.000 Z" id="path-1" class="cls-2" fill-rule="evenodd"/>
</svg>
