<svg xmlns="http://www.w3.org/2000/svg" xmlns:xlink="http://www.w3.org/1999/xlink" preserveAspectRatio="xMidYMid" width="32" height="26" viewBox="0 0 32 26">
  <defs>
    <style>

      .cls-2 {
        fill: #999999;
      }
    </style>
  </defs>
  <path d="M7.986,0.007 C7.986,0.007 0.000,1.881 0.000,1.881 C0.000,1.881 0.000,25.293 0.000,25.293 C0.000,25.293 8.016,23.412 8.016,23.412 C8.016,23.412 16.000,25.052 16.000,25.052 C16.000,25.052 23.984,23.412 23.984,23.412 C23.984,23.412 32.000,25.293 32.000,25.293 C32.000,25.293 32.000,1.881 32.000,1.881 C32.000,1.881 24.014,0.007 24.014,0.007 C24.014,0.007 16.000,1.531 16.000,1.531 C16.000,1.531 7.986,0.007 7.986,0.007 ZM30.000,3.467 C30.000,3.467 30.000,22.769 30.000,22.769 C30.000,22.769 25.000,21.596 25.000,21.596 C25.000,21.596 25.000,2.293 25.000,2.293 C25.000,2.293 30.000,3.467 30.000,3.467 ZM2.000,3.467 C2.000,3.467 7.000,2.293 7.000,2.293 C7.000,2.293 7.000,21.596 7.000,21.596 C7.000,21.596 2.000,22.769 2.000,22.769 C2.000,22.769 2.000,3.467 2.000,3.467 ZM9.000,21.573 C9.000,21.573 9.000,2.258 9.000,2.258 C9.000,2.258 15.000,3.489 15.000,3.489 C15.000,3.489 15.000,22.805 15.000,22.805 C15.000,22.805 9.000,21.573 9.000,21.573 ZM17.000,3.489 C17.000,3.489 23.000,2.258 23.000,2.258 C23.000,2.258 23.000,21.573 23.000,21.573 C23.000,21.573 17.000,22.805 17.000,22.805 C17.000,22.805 17.000,3.489 17.000,3.489 Z" id="path-1" class="cls-2" fill-rule="evenodd"/>
</svg>
