<svg xmlns="http://www.w3.org/2000/svg" xmlns:xlink="http://www.w3.org/1999/xlink" preserveAspectRatio="xMidYMid" width="24" height="32" viewBox="0 0 24 32">
  <defs>
    <style>

      .cls-2 {
        fill: #80407a;
        filter: url(#color-overlay-1);
      }
    </style>

    <filter id="color-overlay-1" filterUnits="userSpaceOnUse">
      <feFlood flood-color="#999999" flood-opacity="1"/>
      <feComposite operator="in" in2="SourceGraphic"/>
      <feBlend mode="normal" in2="SourceGraphic" result="colorOverlay"/>
    </filter>
  </defs>
  <path d="M20.000,32.000 C20.000,32.000 4.000,32.000 4.000,32.000 C1.794,32.000 0.000,30.206 0.000,28.000 C0.000,28.000 0.000,4.000 0.000,4.000 C0.000,1.794 1.794,0.000 4.000,0.000 C4.000,0.000 20.000,0.000 20.000,0.000 C22.206,0.000 24.000,1.794 24.000,4.000 C24.000,4.000 24.000,28.000 24.000,28.000 C24.000,30.206 22.206,32.000 20.000,32.000 ZM22.000,4.000 C22.000,2.898 21.102,2.000 20.000,2.000 C20.000,2.000 4.000,2.000 4.000,2.000 C2.898,2.000 2.000,2.898 2.000,4.000 C2.000,4.000 2.000,28.000 2.000,28.000 C2.000,29.103 2.898,30.000 4.000,30.000 C4.000,30.000 20.000,30.000 20.000,30.000 C21.102,30.000 22.000,29.103 22.000,28.000 C22.000,28.000 22.000,4.000 22.000,4.000 ZM19.000,22.000 C19.000,22.000 5.000,22.000 5.000,22.000 C3.897,22.000 3.000,21.103 3.000,20.000 C3.000,20.000 3.000,5.000 3.000,5.000 C3.000,3.898 3.897,3.000 5.000,3.000 C5.000,3.000 19.000,3.000 19.000,3.000 C20.103,3.000 21.000,3.898 21.000,5.000 C21.000,5.000 21.000,20.000 21.000,20.000 C21.000,21.103 20.103,22.000 19.000,22.000 ZM19.000,5.000 C19.000,5.000 5.000,5.000 5.000,5.000 C5.000,5.000 5.000,20.000 5.000,20.000 C5.000,20.000 19.000,20.000 19.000,20.000 C19.000,20.000 19.000,5.000 19.000,5.000 ZM12.000,23.000 C13.654,23.000 15.000,24.346 15.000,26.000 C15.000,27.655 13.654,29.000 12.000,29.000 C10.346,29.000 9.000,27.655 9.000,26.000 C9.000,24.346 10.346,23.000 12.000,23.000 ZM11.000,27.000 C11.000,27.000 13.000,27.000 13.000,27.000 C13.000,27.000 13.000,25.000 13.000,25.000 C13.000,25.000 11.000,25.000 11.000,25.000 C11.000,25.000 11.000,27.000 11.000,27.000 Z" id="path-1" class="cls-2" fill-rule="evenodd"/>
</svg>
