<svg xmlns="http://www.w3.org/2000/svg" xmlns:xlink="http://www.w3.org/1999/xlink" preserveAspectRatio="xMidYMid" width="32" height="32" viewBox="0 0 32 32">
  <defs>
    <style>

      .cls-2 {
        fill: #999999;
      }
    </style>
  </defs>
  <path d="M26.500,11.000 C29.533,11.000 32.000,8.532 32.000,5.500 C32.000,2.468 29.533,-0.000 26.500,-0.000 C23.467,-0.000 21.000,2.468 21.000,5.500 C21.000,5.769 21.026,6.030 21.064,6.289 C21.064,6.289 9.500,10.736 9.500,10.736 C8.496,9.670 7.076,9.000 5.500,9.000 C2.467,9.000 0.000,11.468 0.000,14.500 C0.000,17.532 2.467,20.000 5.500,20.000 C6.682,20.000 7.776,19.621 8.673,18.984 C8.673,18.984 16.507,24.207 16.507,24.207 C16.185,24.906 16.000,25.681 16.000,26.500 C16.000,29.532 18.467,32.000 21.500,32.000 C24.533,32.000 27.000,29.532 27.000,26.500 C27.000,23.468 24.533,21.000 21.500,21.000 C20.006,21.000 18.651,21.600 17.659,22.571 C17.659,22.571 10.089,17.524 10.089,17.524 C10.663,16.655 11.000,15.617 11.000,14.500 C11.000,13.777 10.856,13.089 10.602,12.456 C10.602,12.456 21.705,8.186 21.705,8.186 C22.648,9.862 24.443,11.000 26.500,11.000 ZM5.500,18.000 C3.570,18.000 2.000,16.430 2.000,14.500 C2.000,12.570 3.570,11.000 5.500,11.000 C7.430,11.000 9.000,12.570 9.000,14.500 C9.000,16.430 7.430,18.000 5.500,18.000 ZM21.500,23.000 C23.430,23.000 25.000,24.570 25.000,26.500 C25.000,28.430 23.430,30.000 21.500,30.000 C19.570,30.000 18.000,28.430 18.000,26.500 C18.000,24.570 19.570,23.000 21.500,23.000 ZM26.500,2.000 C28.430,2.000 30.000,3.570 30.000,5.500 C30.000,7.430 28.430,9.000 26.500,9.000 C24.570,9.000 23.000,7.430 23.000,5.500 C23.000,3.570 24.570,2.000 26.500,2.000 Z" id="path-1" class="cls-2" fill-rule="evenodd"/>
</svg>
