<svg xmlns="http://www.w3.org/2000/svg" xmlns:xlink="http://www.w3.org/1999/xlink" preserveAspectRatio="xMidYMid" width="32" height="32" viewBox="0 0 32 32">
  <defs>
    <style>

      .cls-2 {
        fill: #999999;
      }
    </style>
  </defs>
  <path d="M31.000,17.000 C31.000,17.000 28.000,17.000 28.000,17.000 C27.448,17.000 27.000,16.553 27.000,16.000 C27.000,15.447 27.448,15.000 28.000,15.000 C28.000,15.000 31.000,15.000 31.000,15.000 C31.552,15.000 32.000,15.447 32.000,16.000 C32.000,16.553 31.552,17.000 31.000,17.000 ZM25.041,8.374 C24.846,8.569 24.590,8.667 24.334,8.667 C24.078,8.667 23.822,8.569 23.627,8.374 C23.236,7.983 23.236,7.351 23.627,6.960 C23.627,6.960 25.899,4.687 25.899,4.687 C26.289,4.296 26.923,4.296 27.313,4.687 C27.704,5.077 27.704,5.710 27.313,6.100 C27.313,6.100 25.041,8.374 25.041,8.374 ZM16.000,23.429 C11.904,23.429 8.571,20.097 8.571,16.000 C8.571,11.903 11.904,8.571 16.000,8.571 C20.096,8.571 23.429,11.903 23.429,16.000 C23.429,20.097 20.096,23.429 16.000,23.429 ZM16.000,10.571 C13.007,10.571 10.571,13.007 10.571,16.000 C10.571,18.993 13.007,21.429 16.000,21.429 C18.993,21.429 21.429,18.993 21.429,16.000 C21.429,13.007 18.993,10.571 16.000,10.571 ZM16.000,5.000 C15.448,5.000 15.000,4.552 15.000,4.000 C15.000,4.000 15.000,1.000 15.000,1.000 C15.000,0.447 15.448,-0.000 16.000,-0.000 C16.552,-0.000 17.000,0.447 17.000,1.000 C17.000,1.000 17.000,4.000 17.000,4.000 C17.000,4.552 16.552,5.000 16.000,5.000 ZM7.666,8.667 C7.410,8.667 7.154,8.569 6.959,8.374 C6.959,8.374 4.687,6.100 4.687,6.100 C4.296,5.710 4.296,5.077 4.687,4.687 C5.077,4.296 5.711,4.296 6.101,4.687 C6.101,4.687 8.373,6.960 8.373,6.960 C8.764,7.351 8.764,7.983 8.373,8.374 C8.178,8.569 7.922,8.667 7.666,8.667 ZM5.000,16.000 C5.000,16.553 4.552,17.000 4.000,17.000 C4.000,17.000 1.000,17.000 1.000,17.000 C0.448,17.000 0.000,16.553 0.000,16.000 C0.000,15.447 0.448,15.000 1.000,15.000 C1.000,15.000 4.000,15.000 4.000,15.000 C4.552,15.000 5.000,15.447 5.000,16.000 ZM6.959,23.627 C7.349,23.236 7.983,23.236 8.373,23.627 C8.764,24.018 8.764,24.650 8.373,25.041 C8.373,25.041 6.101,27.314 6.101,27.314 C5.906,27.510 5.649,27.607 5.394,27.607 C5.138,27.607 4.882,27.510 4.687,27.314 C4.296,26.924 4.296,26.291 4.687,25.900 C4.687,25.900 6.959,23.627 6.959,23.627 ZM16.000,27.000 C16.552,27.000 17.000,27.447 17.000,28.000 C17.000,28.000 17.000,31.000 17.000,31.000 C17.000,31.552 16.552,32.000 16.000,32.000 C15.448,32.000 15.000,31.552 15.000,31.000 C15.000,31.000 15.000,28.000 15.000,28.000 C15.000,27.447 15.448,27.000 16.000,27.000 ZM25.041,23.627 C25.041,23.627 27.313,25.900 27.313,25.900 C27.704,26.291 27.704,26.924 27.313,27.314 C27.118,27.510 26.862,27.607 26.606,27.607 C26.351,27.607 26.094,27.510 25.899,27.314 C25.899,27.314 23.627,25.041 23.627,25.041 C23.236,24.650 23.236,24.018 23.627,23.627 C24.018,23.236 24.651,23.236 25.041,23.627 Z" id="path-1" class="cls-2" fill-rule="evenodd"/>
</svg>
