<svg xmlns="http://www.w3.org/2000/svg" xmlns:xlink="http://www.w3.org/1999/xlink" preserveAspectRatio="xMidYMid" width="30" height="32" viewBox="0 0 30 32">
  <defs>
    <style>

      .cls-2 {
        fill: #999999;
      }
    </style>
  </defs>
  <path d="M29.707,6.707 C29.512,6.902 29.256,7.000 29.000,7.000 C28.744,7.000 28.488,6.902 28.293,6.707 C28.293,6.707 26.933,5.346 26.933,5.346 C26.884,5.477 26.813,5.602 26.707,5.707 C26.707,5.707 25.799,6.615 25.799,6.615 C28.394,9.312 30.000,12.970 30.000,17.000 C30.000,25.271 23.272,32.000 15.000,32.000 C6.729,32.000 -0.000,25.271 -0.000,17.000 C-0.000,9.066 6.195,2.569 14.000,2.051 C14.000,2.051 14.000,1.000 14.000,1.000 C14.000,0.447 14.447,-0.000 15.000,-0.000 C15.553,-0.000 16.000,0.447 16.000,1.000 C16.000,1.000 16.000,2.051 16.000,2.051 C19.133,2.259 22.003,3.424 24.319,5.266 C24.319,5.266 25.293,4.293 25.293,4.293 C25.398,4.187 25.522,4.116 25.653,4.067 C25.653,4.067 24.293,2.707 24.293,2.707 C23.902,2.316 23.902,1.683 24.293,1.293 C24.684,0.902 25.316,0.902 25.707,1.293 C25.707,1.293 29.707,5.293 29.707,5.293 C30.098,5.684 30.098,6.316 29.707,6.707 ZM15.000,4.000 C7.832,4.000 2.000,9.832 2.000,17.000 C2.000,24.168 7.832,30.000 15.000,30.000 C22.168,30.000 28.000,24.168 28.000,17.000 C28.000,9.832 22.168,4.000 15.000,4.000 ZM15.000,20.000 C13.346,20.000 12.000,18.654 12.000,17.000 C12.000,15.698 12.839,14.598 14.000,14.184 C14.000,14.184 14.000,7.000 14.000,7.000 C14.000,6.447 14.447,6.000 15.000,6.000 C15.553,6.000 16.000,6.447 16.000,7.000 C16.000,7.000 16.000,14.184 16.000,14.184 C17.161,14.598 18.000,15.698 18.000,17.000 C18.000,18.654 16.654,20.000 15.000,20.000 ZM16.000,16.000 C16.000,16.000 14.000,16.000 14.000,16.000 C14.000,16.000 14.000,18.000 14.000,18.000 C14.000,18.000 16.000,18.000 16.000,18.000 C16.000,18.000 16.000,16.000 16.000,16.000 Z" id="path-1" class="cls-2" fill-rule="evenodd"/>
</svg>
